<svg xmlns="http://www.w3.org/2000/svg" viewBox="0 0 330 150" style="enable-background:new 0 0 330 150" xml:space="preserve"><path fill="#101010" d="M330 150H0V0h330z"/><g fill="#FFF"><path d="M30 20H20v50h50V60H30zM220 20h-20v10h20v40h10V30h20V20h-20z"/><path class="st1" d="M100 40h30v10h-30z"/><path d="M80 20v50h50V60H90V30h40V20H90zM300 20h-40v50h10V30h30v20h-20v10h20v10h10V20zM160 40v10h20v10h-40v10h50V40h-10z"/><path d="M140 20v30h10V30h40V20h-40zM140 80v50h50v-10h-40V90h40V80h-40zM70 130V80H20v10h40v30H20v10h40zM90 80H80v50h50V80H90zm30 40H90V90h30v30zM220 100v10h20v10h-40v10h50v-30h-10z"/><path d="M200 80v30h10V90h40V80h-40z"/></g></svg>