<svg xmlns="http://www.w3.org/2000/svg" viewBox="0 0 183.1 122.2" style="enable-background:new 0 0 183.1 122.2" xml:space="preserve"><style>.st0{fill:#212121}.st1{fill:none;stroke:#212121;stroke-miterlimit:10}</style><path id="card_00000058578527587133917510000011501325901301331602_" class="st0" d="M123.5 38H4.5C2 38 0 40 0 42.5v66c0 2.5 2 4.5 4.5 4.5h119c2.5 0 4.5-2 4.5-4.5v-66c0-2.5-2.1-4.5-4.5-4.5zm-1.7 29v7h-27v-7h27zm-27-3v-7h27v7h-27zm27-10h-27v-7h27v7zM76.2 94h-7v-7h7v7zm-7-10h-20v-7h37v7h-17zm-3 10h-7v-7h7v7zm-3.7-47h10.3v7H62.5v-7zm13.3 10h10.3v7h-37v-7H75.8zm10.4 10v7h-37v-7h37zM59.5 54H49.2v-7h10.3v7zM49.2 87h7v7h-7v-7zm30 0h7v7h-7v-7zm6.9-33H75.8v-7h10.3v7zm-53 43v7h-27v-7h27zm-27-3v-7h27v7h-27zm27-10h-27v-7h27v7zm8.5 6.5v11h-7v-2h5v-8h-5v-2h5v-8h-5v-2h13.1v2h-6.1v9z"/><path class="st0" d="M172.1 9.5c-1.9 0-3.5-1.6-3.5-3.5s1.6-3.5 3.5-3.5 3.5 1.6 3.5 3.5-1.6 3.5-3.5 3.5zm0-6c-1.4 0-2.5 1.1-2.5 2.5s1.1 2.5 2.5 2.5 2.5-1.1 2.5-2.5-1.1-2.5-2.5-2.5zM160 9.5c-1.9 0-3.5-1.6-3.5-3.5s1.6-3.5 3.5-3.5 3.5 1.6 3.5 3.5-1.6 3.5-3.5 3.5zm0-6c-1.4 0-2.5 1.1-2.5 2.5s1.1 2.5 2.5 2.5 2.5-1.1 2.5-2.5-1.1-2.5-2.5-2.5zM148.7 9.5c-1.9 0-3.5-1.6-3.5-3.5s1.6-3.5 3.5-3.5 3.5 1.6 3.5 3.5-1.6 3.5-3.5 3.5zm0-6c-1.4 0-2.5 1.1-2.5 2.5s1.1 2.5 2.5 2.5 2.5-1.1 2.5-2.5-1.1-2.5-2.5-2.5zM181.9 24v28h-2.7V24h2.7m1-1h-4.7v30h4.7V23zM37.1 12h142v1h-142z"/><path class="st0" d="M181.6 1.5c-.9-.9-2.2-1.5-3.5-1.5h-140c-1.4 0-2.6.6-3.5 1.5S33.1 3.7 33.1 5v33h1V5c0-1.1.4-2.1 1.2-2.8.8-.8 1.8-1.2 2.8-1.2h140c1.1 0 2.1.4 2.8 1.2.8.8 1.2 1.8 1.2 2.8v86c0 1.1-.4 2.1-1.2 2.8-.8.8-1.8 1.2-2.8 1.2H128v1h50.1c1.4 0 2.6-.6 3.5-1.5.9-.9 1.5-2.2 1.5-3.5V5c0-1.4-.6-2.6-1.5-3.5z"/><path class="st1" d="m151 118.3-6-5.4 6-5.2M168.9 107.7l6.1 5.2-6.1 5.4M164.7 103.8l-9.5 18.4"/></svg>