<svg version="1.1" id="Слой_1" xmlns="http://www.w3.org/2000/svg" x="0" y="0" viewBox="0 0 89.9 85" style="enable-background:new 0 0 89.9 85" xml:space="preserve"><style>.st1{fill:#101010}</style><circle cx="49.9" cy="45" r="40" style="fill:#0000000c"/><path class="st1" d="M82.4 48.9H70.5c3.7-2.3 6.1-6.4 6.1-11 0-7.2-5.8-13-13-13-7.1 0-13 5.8-13 13 0 4.6 2.4 8.7 6.1 11h-2.6l-8.2-8.2 3.8-14.2c1.1-4-1.3-8.1-5.3-9.2-4-1.1-8.1 1.3-9.2 5.3l-4.7 17.7c-.3.9-.5 1.9-.4 2.8V44c0 .1 0 .3.1.4 0 .1.1.2.1.3 0 .1.1.2.1.4 0 .1.1.2.1.3 0 .1.1.2.1.4 0 .1.1.2.1.3.1.1.1.2.2.3.1.1.1.2.2.3.1.1.1.2.2.3.1.1.2.2.3.4 0 .1.1.1.1.2.1.2.3.3.4.5.1.1.1.2.2.2l16 16 .9 11.4.8 9.2c19.2-.1 35.2-13.8 38.9-32-1.1-2.3-3.6-4-6.5-4z"/><circle class="st1" cx="15" cy="15" r="15"/><path style="fill:#fff" d="M19 18.8v-7.6l-4-3.7-4 3.7v7.6l4 3.7z"/></svg>