<svg version="1.1" id="Слой_1" xmlns="http://www.w3.org/2000/svg" x="0" y="0" viewBox="0 0 267.4 235" style="enable-background:new 0 0 267.4 235" xml:space="preserve"><style>.st1{fill:#fff;stroke:#fff;stroke-linejoin:round;stroke-miterlimit:10}</style><linearGradient id="SVGID_1_" gradientUnits="userSpaceOnUse" x1="711.716" y1="180.504" x2="629.005" y2="-3.205" gradientTransform="rotate(-45.762 459.012 703.971)"><stop offset=".5" style="stop-color:#ccc"/><stop offset="1" style="stop-color:#ccc"/><stop offset="1" style="stop-color:#ccc"/></linearGradient><path d="M234 199.5c-10.3 10.5-22.2 18.9-35.6 25-14.3 6.5-29.6 10-45.5 10.4-15.9.4-31.3-2.3-46-8-14.1-5.5-26.9-13.7-38-24.2C57.8 192.2 49 179.9 42.7 166l.9-.4c6.2 13.7 15 25.9 25.9 36.4s23.7 18.5 37.7 24c14.5 5.7 29.9 8.4 45.6 7.9 15.7-.4 30.9-3.9 45.1-10.4 13.7-6.2 25.9-15 36.4-25.9 10.4-11 18.5-23.7 24-37.7 5.7-14.5 8.4-29.9 7.9-45.6-.4-15.7-3.9-30.9-10.4-45.1C249.7 55.6 241 43.4 230 33c-11-10.4-23.7-18.5-37.7-24-14.5-5.7-29.9-8.4-45.6-7.9-15.7.4-30.9 3.9-45.1 10.4l-.4-.9C115.6 4 130.9.5 146.7 0c15.9-.4 31.3 2.3 46 8 14.1 5.5 26.9 13.7 38 24.2 11.1 10.5 19.9 22.8 26.2 36.7 6.5 14.3 10 29.6 10.4 45.5.4 15.9-2.3 31.3-8 46-5.5 14.1-13.7 26.9-24.2 38l-1.1 1.1z" style="fill:url(#SVGID_1_)"/><path class="st1" d="M198 76.8h11V145h-11zM174.5 98c-2.5-2.5-5.5-4.5-8.7-5.9-6.8-2.9-14.6-2.9-21.4 0-3.3 1.4-6.2 3.4-8.7 5.9-2.5 2.5-4.5 5.5-5.9 8.7-1.4 3.4-2.2 7-2.2 10.7 0 3.7.7 7.3 2.2 10.7 1.4 3.3 3.4 6.2 5.9 8.7 2.5 2.5 5.5 4.5 8.7 5.9 3.4 1.4 7 2.2 10.7 2.2h7.7v-11h-7.7c-2.2 0-4.4-.4-6.4-1.3-2-.8-3.7-2-5.2-3.5s-2.7-3.3-3.5-5.2c-.9-2-1.3-4.2-1.3-6.4s.4-4.4 1.3-6.4c.8-2 2-3.7 3.5-5.2s3.3-2.7 5.2-3.5c4.1-1.7 8.8-1.7 12.8 0 2 .8 3.7 2 5.2 3.5s2.7 3.3 3.5 5.2c.9 2 1.3 4.2 1.3 6.4V145h11v-27.5c0-3.7-.7-7.3-2.2-10.7-1.2-3.3-3.2-6.2-5.8-8.8zM115.2 98c-2.5-2.5-5.5-4.5-8.7-5.9-6.8-2.9-14.6-2.9-21.4 0-3.3 1.4-6.2 3.4-8.7 5.9-2.5 2.5-4.5 5.5-5.9 8.7-1.4 3.4-2.2 7-2.2 10.7s.7 7.3 2.2 10.7c1.4 3.3 3.4 6.2 5.9 8.7 2.5 2.5 5.5 4.5 8.7 5.9 3.4 1.4 7 2.2 10.7 2.2 3.7 0 7.3-.7 10.7-2.2l5.1-2.1-4.3-10.1-5.1 2.1c-4.1 1.7-8.8 1.7-12.8 0-2-.8-3.7-2-5.2-3.5s-2.7-3.3-3.5-5.2c-.9-2-1.3-4.2-1.3-6.4s.4-4.4 1.3-6.4c.8-2 2-3.7 3.5-5.3 1.5-1.5 3.3-2.7 5.2-3.5 4.1-1.7 8.8-1.7 12.8 0 2 .8 3.7 2 5.2 3.5s2.7 3.3 3.5 5.2l2.1 5.1 10.1-4.3-2.1-5.1c-1.3-3.2-3.3-6.1-5.8-8.7zM51.3 114.9c2.5-2.5 4.5-5.5 5.9-8.7 1.4-3.4 2.2-7 2.2-10.7 0-3.7-.7-7.3-2.2-10.7-1.4-3.3-3.4-6.2-5.9-8.7-2.5-2.5-5.5-4.5-8.7-5.9-3.4-1.4-7-2.2-10.7-2.2H0v30.8h11V79h20.9c2.2 0 4.4.4 6.4 1.3 2 .8 3.7 2 5.2 3.5s2.7 3.3 3.5 5.2c.9 2 1.3 4.2 1.3 6.4s-.4 4.4-1.3 6.4c-.8 2-2 3.7-3.5 5.2-.5.5-1 .9-1.6 1.4l-3.9 2.2c-2 .8-4 1.2-6.2 1.2H16.5v11h15.4c2 0 4-.2 6-.7L51 145h12.7L48 117.8c1.2-.9 2.3-1.8 3.3-2.9zM220 134h11v11h-11z"/></svg>