<svg xmlns="http://www.w3.org/2000/svg" width="256" height="256" xml:space="preserve"><g style="stroke:none;stroke-width:0;stroke-dasharray:none;stroke-linecap:butt;stroke-linejoin:miter;stroke-miterlimit:10;fill:none;fill-rule:nonzero;opacity:1"><path d="M89.998 45.604c-.201-5.442-4.77-9.691-10.229-9.506a9.903 9.903 0 0 0-6.466 2.737 48.037 48.037 0 0 0-26.017-8.314L51.67 9.442l14.461 3.041c.402 3.712 3.728 6.4 7.44 5.996 3.712-.402 6.4-3.728 5.996-7.44s-3.728-6.4-7.44-5.996a6.681 6.681 0 0 0-5.105 3.309L50.461 5.043a2.094 2.094 0 0 0-2.503 1.596v.033L42.97 30.119a48.411 48.411 0 0 0-26.352 8.314c-3.964-3.728-10.212-3.544-13.94.437-3.728 3.964-3.544 10.212.437 13.94a9.57 9.57 0 0 0 2.653 1.781 21.69 21.69 0 0 0 0 2.973c0 15.133 17.636 27.444 39.386 27.444S84.54 72.713 84.54 57.564a21.69 21.69 0 0 0 0-2.973 9.865 9.865 0 0 0 5.458-8.987z" style="stroke:none;stroke-width:1px;stroke-dasharray:none;stroke-linecap:butt;stroke-linejoin:miter;stroke-miterlimit:10;fill:#1f1f1f;fill-rule:nonzero;opacity:1" transform="matrix(2.81 0 0 2.81 1.407 1.407)"/><path d="M22.429 52.373c0-3.728 3.041-6.769 6.769-6.769s6.769 3.041 6.769 6.769-3.041 6.769-6.769 6.769c-3.745-.034-6.769-3.04-6.769-6.769zM61.681 71.218v-.269a25.95 25.95 0 0 1-16.696 5.207 25.947 25.947 0 0 1-16.696-5.207 1.833 1.833 0 0 1 .252-2.569 1.824 1.824 0 0 1 2.318 0 22.069 22.069 0 0 0 14.058 4.249 22.241 22.241 0 0 0 14.125-4.114 1.902 1.902 0 0 1 2.671.033 1.9 1.9 0 0 1-.032 2.67zM60.757 59.629h-.336l.051-.252c-3.728 0-6.769-3.041-6.769-6.769s3.041-6.769 6.769-6.769 6.769 3.041 6.769 6.769c.15 3.729-2.755 6.869-6.484 7.021z" style="stroke:none;stroke-width:1px;stroke-dasharray:none;stroke-linecap:butt;stroke-linejoin:miter;stroke-miterlimit:10;fill:#fff;fill-rule:nonzero;opacity:1" transform="matrix(2.81 0 0 2.81 1.407 1.407)"/></g></svg>