<svg xmlns="http://www.w3.org/2000/svg" width="256" height="256" xml:space="preserve"><g style="stroke:none;stroke-width:0;stroke-dasharray:none;stroke-linecap:butt;stroke-linejoin:miter;stroke-miterlimit:10;fill:none;fill-rule:nonzero;opacity:1"><path d="M83.924 7.756 4.202 38.496c-5.442 2.183-5.409 5.219-.992 6.571l20.455 6.385L30.7 74.605c.925 2.553.469 3.566 3.151 3.566 2.069 0 2.983-.946 4.138-2.069l9.941-9.666 20.681 15.28c3.806 2.1 6.553 1.012 7.501-3.533l13.577-63.978c1.39-5.574-2.124-8.102-5.765-6.449z" style="stroke:none;stroke-width:1px;stroke-dasharray:none;stroke-linecap:butt;stroke-linejoin:miter;stroke-miterlimit:10;fill:#1f1f1f;fill-rule:nonzero;opacity:1" transform="matrix(2.81 0 0 2.81 1.407 1.407)"/><path d="m33.942 72.016-6.747-22.204 51.935-30.81-38.379 37.787-6.809 15.227z" style="stroke:none;stroke-width:1px;stroke-dasharray:none;stroke-linecap:butt;stroke-linejoin:miter;stroke-miterlimit:10;fill:#fff;fill-rule:nonzero;opacity:1" transform="matrix(2.81 0 0 2.81 1.407 1.407)"/></g></svg>