<svg xmlns="http://www.w3.org/2000/svg" width="256" height="256" xml:space="preserve"><g style="stroke:none;stroke-width:0;stroke-dasharray:none;stroke-linecap:butt;stroke-linejoin:miter;stroke-miterlimit:10;fill:none;fill-rule:nonzero;opacity:1"><path d="M88.119 23.338a11.273 11.273 0 0 0-7.957-7.957C73.144 13.5 45 13.5 45 13.5s-28.144 0-35.162 1.881a11.273 11.273 0 0 0-7.957 7.957C0 30.356 0 45 0 45s0 14.644 1.881 21.662a11.273 11.273 0 0 0 7.957 7.957C16.856 76.5 45 76.5 45 76.5s28.144 0 35.162-1.881a11.273 11.273 0 0 0 7.957-7.957C90 59.644 90 45 90 45s0-14.644-1.881-21.662z" style="stroke:none;stroke-width:1px;stroke-dasharray:none;stroke-linecap:butt;stroke-linejoin:miter;stroke-miterlimit:10;fill:#1f1f1f;fill-rule:nonzero;opacity:1" transform="matrix(2.81 0 0 2.81 1.407 1.407)"/><path style="stroke:none;stroke-width:1px;stroke-dasharray:none;stroke-linecap:butt;stroke-linejoin:miter;stroke-miterlimit:10;fill:#fff;fill-rule:nonzero;opacity:1" transform="matrix(2.81 0 0 2.81 1.407 1.407)" d="M36 58.5 59.38 45 36 31.5z"/></g></svg>