<svg version="1.1" stroke="#101010" fill="#101010" stroke-width="2" xmlns="http://www.w3.org/2000/svg" xmlns:xlink="http://www.w3.org/1999/xlink" x="0px" y="0px"
	 viewBox="0 0 300 52" style="enable-background:new 0 0 300 52;" xml:space="preserve" >
	<polygon points="12,40 12,1 12,0 11,0 1,0 0,0 0,1 0,41 0,51 0,52 1,52 11,52 51,52 52,52 52,51 52,41 52,40 51,40
		"/>
	<polygon points="299,0 289,0 259,0 249,0 248,0 248,1 248,11 248,51 248,52 249,52 259,52 260,52 260,51 260,12
		288,12 288,30 269,30 268,30 268,31 268,41 268,42 269,42 288,42 288,51 288,52 289,52 299,52 300,52 300,51 300,42 300,41 300,31
		300,30 300,11 300,1 300,0 	"/>
	<polygon points="218,0 208,0 188,0 187,0 187,1 187,11 187,12 188,12 207,12 207,51 207,52 208,52 218,52 219,52
		219,51 219,12 238,12 239,12 239,11 239,1 239,0 238,0 	"/>
	<polygon points="83,20 82,20 82,21 82,31 82,32 83,32 113,32 114,32 114,31 114,21 114,20 113,20 	"/>
	<polygon points="73,0 63,0 62,0 62,1 62,11 62,41 62,51 62,52 63,52 73,52 113,52 114,52 114,51 114,41 114,40 113,40
		74,40 74,12 113,12 114,12 114,11 114,1 114,0 113,0 	"/>
	<polygon points="167,20 147,20 146,20 146,21 146,31 146,32 147,32 166,32 166,40 127,40 126,40 126,41 126,51 126,52
		127,52 167,52 177,52 178,52 178,51 178,41 178,31 178,21 178,20 177,20 	"/>
	<polygon points="137,0 127,0 126,0 126,1 126,11 126,31 126,32 127,32 137,32 138,32 138,31 138,12 177,12 178,12
		178,11 178,1 178,0 177,0 	"/>
</svg>
