<?xml version="1.0" encoding="utf-8"?>
<!-- Generator: Adobe Illustrator 26.0.3, SVG Export Plug-In . SVG Version: 6.00 Build 0)  -->
<svg version="1.1" id="Слой_1" xmlns="http://www.w3.org/2000/svg" xmlns:xlink="http://www.w3.org/1999/xlink" x="0px" y="0px"
	 viewBox="0 0 180 120" style="enable-background:new 0 0 180 120;" xml:space="preserve">
<style type="text/css">
	.st0{fill:#101010;}
	.st1{fill:none;stroke:#101010;stroke-width:15;stroke-linecap:round;stroke-linejoin:round;stroke-miterlimit:10;}
</style>
<path class="st0" d="M36,80H4c-2.2,0-4-1.8-4-4V4c0-2.2,1.8-4,4-4h32c2.2,0,4,1.8,4,4v72C40,78.2,38.2,80,36,80z"/>
<path class="st0" d="M176,1c1.7,0,3,1.3,3,3v72c0,1.7-1.3,3-3,3H54c-1.7,0-3-1.3-3-3V4c0-1.7,1.3-3,3-3H176 M176,0H54
	c-2.2,0-4,1.8-4,4v72c0,2.2,1.8,4,4,4h122c2.2,0,4-1.8,4-4V4C180,1.8,178.2,0,176,0L176,0z"/>
<path class="st0" d="M176,120H4c-2.2,0-4-1.8-4-4V94c0-2.2,1.8-4,4-4h172c2.2,0,4,1.8,4,4v22C180,118.2,178.2,120,176,120z"/>
<polyline class="st1" points="145,25.2 115,55.2 115,25.2 85,55.2 "/>
</svg>
