<svg version="1.1" xmlns="http://www.w3.org/2000/svg" xmlns:xlink="http://www.w3.org/1999/xlink" x="0px" y="0px"
	 viewBox="0 0 183.1 122.2" style="enable-background:new 0 0 183.1 122.2;" xml:space="preserve">
<style type="text/css">
	.st0{fill:#212121;}
	.st1{fill:none;stroke:#212121;stroke-miterlimit:10;}
</style>
<path id="card_00000058578527587133917510000011501325901301331602_" class="st0" d="M123.5,38H4.5C2,38,0,40,0,42.5v66
	c0,2.5,2,4.5,4.5,4.5h119c2.5,0,4.5-2,4.5-4.5v-66C128,40,125.9,38,123.5,38z M121.8,67v7h-27v-7H121.8z M94.8,64v-7h27v7H94.8z
	 M121.8,54h-27v-7h27V54z M76.2,94h-7v-7h7V94z M69.2,84h-3h-7h-3h-7v-7h37v7h-7H69.2z M66.2,94h-7v-7h7V94z M62.5,47h10.3v7H62.5
	V47z M75.8,57h10.3v7h-37v-7h10.3h3H75.8z M86.2,67v7h-37v-7H86.2z M59.5,54H49.2v-7h10.3V54z M49.2,87h7v7h-7
	C49.2,94,49.2,87,49.2,87z M79.2,87h7v7h-7V87z M86.1,54H75.8v-7h10.3L86.1,54L86.1,54z M33.1,97v7h-27v-7H33.1z M6.1,94v-7h27v7
	H6.1z M33.1,84h-27v-7h27V84z M41.6,90.5v11h-7v-2h5v-8h-5v-2h5v-8h-5v-2h13.1v1v1h-6.1C41.6,81.5,41.6,90.5,41.6,90.5z"/>
<g>
	<path class="st0" d="M172.1,9.5c-1.9,0-3.5-1.6-3.5-3.5s1.6-3.5,3.5-3.5s3.5,1.6,3.5,3.5S174,9.5,172.1,9.5z M172.1,3.5
		c-1.4,0-2.5,1.1-2.5,2.5s1.1,2.5,2.5,2.5s2.5-1.1,2.5-2.5S173.5,3.5,172.1,3.5z"/>
</g>
<g>
	<g>
		<path class="st0" d="M160,9.5c-1.9,0-3.5-1.6-3.5-3.5s1.6-3.5,3.5-3.5s3.5,1.6,3.5,3.5S161.9,9.5,160,9.5z M160,3.5
			c-1.4,0-2.5,1.1-2.5,2.5s1.1,2.5,2.5,2.5s2.5-1.1,2.5-2.5S161.4,3.5,160,3.5z"/>
	</g>
	<g>
		<path class="st0" d="M148.7,9.5c-1.9,0-3.5-1.6-3.5-3.5s1.6-3.5,3.5-3.5s3.5,1.6,3.5,3.5S150.6,9.5,148.7,9.5z M148.7,3.5
			c-1.4,0-2.5,1.1-2.5,2.5s1.1,2.5,2.5,2.5s2.5-1.1,2.5-2.5S150.1,3.5,148.7,3.5z"/>
	</g>
</g>
<g>
	<path class="st0" d="M181.9,24v28h-2.7V24L181.9,24 M182.9,23h-4.7v30h4.7V23L182.9,23z"/>
</g>
<g>
	<g>
		<rect x="37.1" y="12" class="st0" width="142" height="1"/>
	</g>
</g>
<path class="st0" d="M181.6,1.5c-0.9-0.9-2.2-1.5-3.5-1.5h-70h-70c-1.4,0-2.6,0.6-3.5,1.5S33.1,3.7,33.1,5v33h1V5
	c0-1.1,0.4-2.1,1.2-2.8C36.1,1.4,37.1,1,38.1,1h70h70c1.1,0,2.1,0.4,2.8,1.2c0.8,0.8,1.2,1.8,1.2,2.8v43v43c0,1.1-0.4,2.1-1.2,2.8
	c-0.8,0.8-1.8,1.2-2.8,1.2H128v1h50.1c1.4,0,2.6-0.6,3.5-1.5c0.9-0.9,1.5-2.2,1.5-3.5V48V5C183.1,3.6,182.5,2.4,181.6,1.5z"/>
<g>
	<g>
		<polyline class="st1" points="151,118.3 145,112.9 151,107.7 		"/>
	</g>
	<g>
		<polyline class="st1" points="168.9,107.7 175,112.9 168.9,118.3 		"/>
	</g>
	<g>
		<line class="st1" x1="164.7" y1="103.8" x2="155.2" y2="122.2"/>
	</g>
</g>
</svg>
