<?xml version="1.0" encoding="utf-8"?>
<!-- Generator: Adobe Illustrator 26.0.3, SVG Export Plug-In . SVG Version: 6.00 Build 0)  -->
<svg version="1.1" id="Слой_1" xmlns="http://www.w3.org/2000/svg" xmlns:xlink="http://www.w3.org/1999/xlink" x="0px" y="0px"
	 viewBox="0 0 703 703" style="enable-background:new 0 0 703 703;" xml:space="preserve" fill="#fff">
<g>
	<path class="st0" d="M126.7,42c0,0,0.1,0,0.2,0.1l494.8,307.1l1,0.6l0.5,0.3c0.1,0.5,0,1.3-0.2,1.6c0,0-0.1,0.1-0.4,0.2l-1.7,0.8
		l-1.6,1L126.9,660.9c-0.1,0-0.1,0.1-0.1,0.1c-0.9,0-2.8-1.2-2.8-2.3V44.3C123.9,43.2,125.8,42,126.7,42 M126.7,2
		c-22.1,0-42.9,18.1-42.9,42.3v614.4c0,24.2,20.7,42.3,42.9,42.3c7.1,0,14.4-1.9,21.1-6l492.8-307.2c29.9-14.9,29.9-57.6,2.1-72.5
		L147.9,8C141.1,3.9,133.8,2,126.7,2L126.7,2z"/>
</g>
</svg>
