<?xml version="1.0" encoding="utf-8"?>
<!-- Generator: Adobe Illustrator 26.0.3, SVG Export Plug-In . SVG Version: 6.00 Build 0)  -->
<!--<linearGradient id="SVGID_1_" gradientUnits="userSpaceOnUse" x1="711.7163" y1="180.5038" x2="629.0053" y2="-3.2051" gradientTransform="matrix(0.6976 -0.7164 0.7164 0.6976 -365.5486 541.6732)">-->
<!--	<stop  offset="0.5" style="stop-color:#233F2B"/>-->
<!--	<stop  offset="1" style="stop-color:#A55199"/>-->
<!--	<stop  offset="1" style="stop-color:#101010"/>-->
<!--</linearGradient>-->
<svg version="1.1" id="Слой_1" xmlns="http://www.w3.org/2000/svg" xmlns:xlink="http://www.w3.org/1999/xlink" x="0px" y="0px"
	 viewBox="0 0 267.4 235" style="enable-background:new 0 0 267.4 235;" xml:space="preserve">
<style type="text/css">
	.st0{fill:url(#SVGID_1_);}
	.st1{fill:#FFFFFF;stroke:#FFFFFF;stroke-linejoin:round;stroke-miterlimit:10;}
</style>
<g>
	<linearGradient id="SVGID_1_" gradientUnits="userSpaceOnUse" x1="711.7163" y1="180.5038" x2="629.0053" y2="-3.2051" gradientTransform="matrix(0.6976 -0.7164 0.7164 0.6976 -365.5486 541.6732)">
		<stop  offset="0.5" style="stop-color:#ccc"/>
		<stop  offset="1" style="stop-color:#ccc"/>
		<stop  offset="1" style="stop-color:#ccc"/>
	</linearGradient>
	<path class="st0" d="M234,199.5c-10.3,10.5-22.2,18.9-35.6,25c-14.3,6.5-29.6,10-45.5,10.4c-15.9,0.4-31.3-2.3-46-8
		c-14.1-5.5-26.9-13.7-38-24.2c-11.1-10.5-19.9-22.8-26.2-36.7l0.9-0.4c6.2,13.7,15,25.9,25.9,36.4s23.7,18.5,37.7,24
		c14.5,5.7,29.9,8.4,45.6,7.9c15.7-0.4,30.9-3.9,45.1-10.4c13.7-6.2,25.9-15,36.4-25.9c10.4-11,18.5-23.7,24-37.7
		c5.7-14.5,8.4-29.9,7.9-45.6c-0.4-15.7-3.9-30.9-10.4-45.1C249.7,55.6,241,43.4,230,33c-11-10.4-23.7-18.5-37.7-24
		c-14.5-5.7-29.9-8.4-45.6-7.9c-15.7,0.4-30.9,3.9-45.1,10.4l-0.4-0.9C115.6,4,130.9,0.5,146.7,0c15.9-0.4,31.3,2.3,46,8
		c14.1,5.5,26.9,13.7,38,24.2c11.1,10.5,19.9,22.8,26.2,36.7c6.5,14.3,10,29.6,10.4,45.5c0.4,15.9-2.3,31.3-8,46
		c-5.5,14.1-13.7,26.9-24.2,38C234.8,198.7,234.4,199.1,234,199.5z"/>
</g>
<g>
	<rect x="198" y="76.8" class="st1" width="11" height="68.2"/>
	<path class="st1" d="M174.5,98c-2.5-2.5-5.5-4.5-8.7-5.9c-6.8-2.9-14.6-2.9-21.4,0c-3.3,1.4-6.2,3.4-8.7,5.9
		c-2.5,2.5-4.5,5.5-5.9,8.7c-1.4,3.4-2.2,7-2.2,10.7c0,3.7,0.7,7.3,2.2,10.7c1.4,3.3,3.4,6.2,5.9,8.7c2.5,2.5,5.5,4.5,8.7,5.9
		c3.4,1.4,7,2.2,10.7,2.2h7.7v-11h-7.7c-2.2,0-4.4-0.4-6.4-1.3c-2-0.8-3.7-2-5.2-3.5c-1.5-1.5-2.7-3.3-3.5-5.2
		c-0.9-2-1.3-4.2-1.3-6.4c0-2.2,0.4-4.4,1.3-6.4c0.8-2,2-3.7,3.5-5.2c1.5-1.5,3.3-2.7,5.2-3.5c4.1-1.7,8.8-1.7,12.8,0
		c2,0.8,3.7,2,5.2,3.5c1.5,1.5,2.7,3.3,3.5,5.2c0.9,2,1.3,4.2,1.3,6.4V145h11v-27.5c0-3.7-0.7-7.3-2.2-10.7
		C179.1,103.5,177.1,100.6,174.5,98z"/>
	<path class="st1" d="M115.2,98c-2.5-2.5-5.5-4.5-8.7-5.9c-6.8-2.9-14.6-2.9-21.4,0c-3.3,1.4-6.2,3.4-8.7,5.9
		c-2.5,2.5-4.5,5.5-5.9,8.7c-1.4,3.4-2.2,7-2.2,10.7s0.7,7.3,2.2,10.7c1.4,3.3,3.4,6.2,5.9,8.7c2.5,2.5,5.5,4.5,8.7,5.9
		c3.4,1.4,7,2.2,10.7,2.2c3.7,0,7.3-0.7,10.7-2.2l5.1-2.1l-4.3-10.1l-5.1,2.1c-4.1,1.7-8.8,1.7-12.8,0c-2-0.8-3.7-2-5.2-3.5
		c-1.5-1.5-2.7-3.3-3.5-5.2c-0.9-2-1.3-4.2-1.3-6.4s0.4-4.4,1.3-6.4c0.8-2,2-3.7,3.5-5.3c1.5-1.5,3.3-2.7,5.2-3.5
		c4.1-1.7,8.8-1.7,12.8,0c2,0.8,3.7,2,5.2,3.5c1.5,1.5,2.7,3.3,3.5,5.2l2.1,5.1l10.1-4.3l-2.1-5.1C119.7,103.5,117.7,100.6,115.2,98
		z"/>
	<path class="st1" d="M51.3,114.9c2.5-2.5,4.5-5.5,5.9-8.7c1.4-3.4,2.2-7,2.2-10.7c0-3.7-0.7-7.3-2.2-10.7c-1.4-3.3-3.4-6.2-5.9-8.7
		c-2.5-2.5-5.5-4.5-8.7-5.9c-3.4-1.4-7-2.2-10.7-2.2H11H0v11v19.8h11V79h20.9c2.2,0,4.4,0.4,6.4,1.3c2,0.8,3.7,2,5.2,3.5
		c1.5,1.5,2.7,3.3,3.5,5.2c0.9,2,1.3,4.2,1.3,6.4c0,2.2-0.4,4.4-1.3,6.4c-0.8,2-2,3.7-3.5,5.2c-0.5,0.5-1,0.9-1.6,1.4l-3.9,2.2
		c-2,0.8-4,1.2-6.2,1.2h-6.6H22h-5.5v11H22h3.3h6.6c2,0,4-0.2,6-0.7L51,145h12.7L48,117.8C49.2,116.9,50.3,116,51.3,114.9z"/>
	<rect x="220" y="134" class="st1" width="11" height="11"/>
</g>
</svg>
