<?xml version="1.0" encoding="utf-8"?>
<!-- Generator: Adobe Illustrator 26.0.3, SVG Export Plug-In . SVG Version: 6.00 Build 0)  -->
<svg version="1.1" id="Слой_1" xmlns="http://www.w3.org/2000/svg" xmlns:xlink="http://www.w3.org/1999/xlink" x="0px" y="0px"
	 viewBox="0 0 89.9 85" style="enable-background:new 0 0 89.9 85;" xml:space="preserve">
<style type="text/css">
	.st0{fill:#0000000c;}
	.st1{fill:#101010;}
	.st2{fill:#FFFFFF;}
</style>
<circle class="st0" cx="49.9" cy="45" r="40"/>
<path class="st1" d="M82.4,48.9h-9.8h-2.1c3.7-2.3,6.1-6.4,6.1-11c0-7.2-5.8-13-13-13c-7.1,0-13,5.8-13,13c0,4.6,2.4,8.7,6.1,11
	h-2.1h-0.5l-8.2-8.2l3.8-14.2c1.1-4-1.3-8.1-5.3-9.2c-4-1.1-8.1,1.3-9.2,5.3l-4.7,17.7c-0.3,0.9-0.5,1.9-0.4,2.8c0,0,0,0.1,0,0.1
	c0,0.2,0,0.3,0,0.5c0,0.1,0,0.2,0,0.3c0,0.1,0,0.3,0.1,0.4c0,0.1,0.1,0.2,0.1,0.3c0,0.1,0.1,0.2,0.1,0.4c0,0.1,0.1,0.2,0.1,0.3
	c0,0.1,0.1,0.2,0.1,0.4c0,0.1,0.1,0.2,0.1,0.3c0.1,0.1,0.1,0.2,0.2,0.3c0.1,0.1,0.1,0.2,0.2,0.3c0.1,0.1,0.1,0.2,0.2,0.3
	c0.1,0.1,0.2,0.2,0.3,0.4c0,0.1,0.1,0.1,0.1,0.2c0.1,0.2,0.3,0.3,0.4,0.5c0,0,0,0,0,0l0,0c0.1,0.1,0.1,0.2,0.2,0.2l16,16l0.9,11.4
	l0.8,9.2c19.2-0.1,35.2-13.8,38.9-32C87.8,50.6,85.3,48.9,82.4,48.9z"/>
<circle class="st1" cx="15" cy="15" r="15"/>
<polygon class="st2" points="19,18.8 19,11.2 15,7.5 11,11.2 11,18.8 15,22.5 "/>
</svg>
