<svg version="1.1" id="Слой_1" xmlns="http://www.w3.org/2000/svg" x="0" y="0" viewBox="0 0 20 20" style="enable-background:new 0 0 20 20" xml:space="preserve" fill="#fff"><path class="st0" d="M10 .2C4.5.2 0 4.7 0 10.2c0 4.4 2.9 8.2 6.8 9.5.5.1.7-.2.7-.5v-1.7c-2.8.6-3.4-1.3-3.4-1.3-.4-1.1-1.1-1.4-1.1-1.4-.9-.6.1-.6.1-.6 1 .1 1.5 1 1.5 1 .9 1.5 2.4 1.1 2.9.8.1-.6.3-1.1.6-1.3-2.1-.3-4.5-1.1-4.5-5 0-1.1.4-2 1-2.7-.1-.2-.4-1.2.1-2.6 0 0 .8-.3 2.7 1 .9-.2 1.7-.3 2.6-.3.8 0 1.7.1 2.5.3 1.9-1.3 2.7-1 2.7-1 .5 1.4.2 2.4.1 2.6.6.7 1 1.6 1 2.7 0 3.8-2.3 4.7-4.6 4.9.3.3.7.9.7 1.8v2.7c0 .3.2.6.7.5 4-1.3 6.9-5.1 6.9-9.5C20 4.7 15.5.2 10 .2"/></svg>