<svg version="1.1" id="Слой_1" xmlns="http://www.w3.org/2000/svg" x="0" y="0" viewBox="0 0 100 148" style="enable-background:new 0 0 100 148" xml:space="preserve"><style>.st0{fill:#101010}.st1{fill:none;stroke:#101010;stroke-width:15px;stroke-linecap:round;stroke-linejoin:round;stroke-miterlimit:10}</style><path class="st0" d="m89 118.3-20.7-7.5 9.3-25.6c2.1-5.7 8.4-8.7 14.1-6.6 5.7 2.1 8.7 8.4 6.6 14.1L89 118.3z"/><path class="st0" d="m95 62.3-26-15h-.1l-.6-.3c-.1 0-.2-.1-.3-.1-.2-.1-.4-.2-.6-.2-.1 0-.2-.1-.3-.1-.2-.1-.4-.1-.6-.2-.1 0-.3-.1-.4-.1-.2 0-.3-.1-.5-.1s-.3-.1-.5-.1H63.2c-.2 0-.4 0-.5.1-.1 0-.3 0-.4.1-.2 0-.4.1-.6.1-.1 0-.2.1-.3.1-.2.1-.4.1-.6.2-.1 0-.2.1-.3.1l-.6.3c-.1 0-.2.1-.3.1-.2.1-.3.2-.5.3-.1.1-.2.1-.3.2-.2.1-.3.2-.4.3-.1.1-.2.2-.4.3-.1.1-.3.2-.4.3l-.3.3-.4.4-.3.3c-.1.2-.3.3-.4.5-.1.1-.1.2-.2.3-.1.2-.3.4-.4.6 0 .1-.1.1-.1.2v.1c-.1.2-.2.5-.4.7 0 .1-.1.1-.1.2-.1.2-.2.5-.3.7 0 .1-.1.2-.1.3-.1.2-.1.4-.2.6 0 .1-.1.2-.1.4s-.1.3-.1.5-.1.3-.1.5v1.1V10c0-5.5-4.5-10-10-10S34 4.5 34 10v11c0-5-4-9-9-9s-9 4-9 9v21c0-4.4-3.6-8-8-8s-8 3.6-8 8v60c0 25.4 20.6 46 46 46s46-20.6 46-46H74V73.3l11 6.3c4.8 2.8 10.9 1.1 13.7-3.7 2.7-4.7 1.1-10.8-3.7-13.6z"/></svg>