<svg version="1.1" id="Слой_1" xmlns="http://www.w3.org/2000/svg" x="0" y="0" viewBox="0 0 703 703" style="enable-background:new 0 0 703 703" xml:space="preserve" fill="#fff"><path class="st0" d="M126.7 42s.1 0 .2.1l494.8 307.1 1 .6.5.3c.1.5 0 1.3-.2 1.6 0 0-.1.1-.4.2l-1.7.8-1.6 1-492.4 307.2c-.1 0-.1.1-.1.1-.9 0-2.8-1.2-2.8-2.3V44.3c-.1-1.1 1.8-2.3 2.7-2.3m0-40c-22.1 0-42.9 18.1-42.9 42.3v614.4c0 24.2 20.7 42.3 42.9 42.3 7.1 0 14.4-1.9 21.1-6l492.8-307.2c29.9-14.9 29.9-57.6 2.1-72.5L147.9 8c-6.8-4.1-14.1-6-21.2-6z"/></svg>