<?xml version="1.0" encoding="utf-8"?>
<!-- Generator: Adobe Illustrator 26.0.3, SVG Export Plug-In . SVG Version: 6.00 Build 0)  -->
<svg version="1.1" id="Слой_1" xmlns="http://www.w3.org/2000/svg" xmlns:xlink="http://www.w3.org/1999/xlink" x="0px" y="0px"
	 viewBox="0 0 155 155" style="enable-background:new 0 0 155 155;" xml:space="preserve">
<style type="text/css">
	.st0{fill:#101010;}
	.st1{fill:#FFFFFF;}
</style>
<rect x="0" y="0" transform="matrix(6.123234e-17 -1 1 6.123234e-17 -1.818989e-12 155)" class="st0" width="155" height="155"/>
<polygon class="st1" points="70,92.1 62.9,85 45,102.9 27.1,85 20,92.1 37.9,110 20,127.9 27.1,135 45,117.1 62.9,135 70,127.9 
	52.1,110 "/>
<polygon class="st1" points="30,60 30,20 20,20 20,60 20,70 30,70 70,70 70,60 "/>
<polygon class="st1" points="135,85 115,85 105,85 85,85 85,95 105,95 105,135 115,135 115,95 135,95 "/>
<polygon class="st1" points="135,30 135,20 95,20 85,20 85,30 85,60 85,70 95,70 135,70 135,60 95,60 95,50 125,50 125,40 95,40 
	95,30 "/>
</svg>
