<svg version="1.1" xmlns="http://www.w3.org/2000/svg" xmlns:xlink="http://www.w3.org/1999/xlink" x="0px" y="0px"
	 viewBox="0 0 110 110" style="enable-background:new 0 0 110 110;" xml:space="preserve" fill="none" stroke="#101010" stroke-linecap="round" stroke-linejoin="round" stroke-miterlimit="10">
<path d="M105,87.9c0-9.4-13.2-11.7-18.8-12.7c-4.2-0.7-9-1.3-14.2-1.7V50.4l0.3-0.1c2.5-0.6,5.1-1.3,7.7-2.3
	c2.1-0.8,4.5-1.7,6.7-3c2.1-1.1,4.2-2.4,6-3.8c2.1-1.6,3.7-3.2,5-4.9c1.6-2.1,2.7-4,3.4-6c0.8-2.3,1.2-4.6,1.2-6.8
	c0-2.3-0.4-4.5-1.2-6.8c-0.7-2-1.8-4-3.4-6.1c-1.3-1.7-2.9-3.3-5-4.9l-0.2-0.1c-1.7-1.2-3.6-2.4-5.7-3.6c-3.6-2-8.2-0.7-10.2,2.9
	s-0.7,8.2,2.9,10.2c1.6,0.9,2.8,1.7,4,2.5c1,0.8,1.8,1.6,2.3,2.2c0.6,0.8,1,1.4,1.2,1.9c0.3,0.7,0.4,1.3,0.4,1.8s-0.1,1.1-0.4,1.8
	c-0.2,0.5-0.6,1.2-1.2,1.9c-0.5,0.7-1.3,1.4-2.4,2.3c-1.1,0.9-2.7,1.9-3.9,2.5l0,0c-1.5,0.7-3.2,1.5-4.9,2.1
	c-1.7,0.6-3.7,1.2-5.8,1.7c0,0-0.4,0.1-0.6,0.1h-8.1c5.2-2,8.8-7.1,8.8-13c0-7.7-6.3-14-14-14s-14,6.3-14,14c0,5.9,3.7,10.9,8.8,13
	h-8.1c-0.2,0-0.8-0.1-0.8-0.1c-1.9-0.4-3.8-1-5.7-1.7c-1.7-0.7-3.5-1.4-4.9-2.1c-1.6-0.9-2.8-1.7-4-2.5c-1-0.8-1.8-1.6-2.3-2.2
	c-0.6-0.8-1-1.4-1.2-2c-0.3-0.7-0.4-1.3-0.4-1.8s0.1-1.1,0.4-1.8c0.2-0.5,0.6-1.2,1.2-1.9c0.5-0.7,1.3-1.4,2.4-2.3
	c1.1-0.8,2.4-1.7,3.6-2.3c3.7-1.9,5.2-6.4,3.4-10.1C31.5,1.4,27-0.1,23.3,1.7c-2.2,1.1-4.3,2.4-6.2,3.9c-2.1,1.6-3.7,3.2-5,4.9
	c-1.6,2.1-2.7,4-3.4,6.1c-0.8,2.3-1.2,4.6-1.2,6.8c0,2.3,0.4,4.5,1.2,6.8c0.7,2,1.8,4,3.4,6.1c1.3,1.7,2.9,3.3,5,4.9l0.2,0.2
	c1.7,1.2,3.5,2.4,5.7,3.6c2.3,1.3,4.8,2.2,6.9,3.1c2.6,1,5.3,1.8,7.9,2.3c0.1,0,0.2,0,0.2,0v23c-5.2,0.4-10.1,1-14.2,1.7
	C18.2,76.1,5,78.4,5,87.8s13.2,11.7,18.8,12.7c0.7,0.1,1.5,0.3,2.3,0.4c-0.1,0.9,0,1.8,0.3,2.7c1.1,4,5.3,6.3,9.3,5.1l20.6-5.9
	l20.5,5.9c4,1.2,8.2-1.1,9.3-5.1c0.3-1.1,0.4-2.1,0.2-3.1C92,99.6,105,97.2,105,87.9z"/>
</svg>

